<svg xmlns="http://www.w3.org/2000/svg" width="13" height="13" viewBox="0 0 13 13">
    <g fill="#007EFF">
        <path d="M6.529 12.99c3.564 0 6.461-2.897 6.461-6.461 0-3.564-2.897-6.462-6.461-6.462C2.965.067.067 2.965.067 6.53c0 3.564 2.898 6.461 6.462 6.461zm0-11.846c2.963 0 5.384 2.408 5.384 5.385s-2.42 5.384-5.384 5.384c-2.964 0-5.385-2.42-5.385-5.384 0-2.964 2.421-5.385 5.385-5.385z" transform="matrix(0 1 1 0 0 0)"/>
        <path d="M9.504 5.519L8.858 4.873 6.462 7.256 4.065 4.873 3.419 5.519 6.462 8.562z" transform="matrix(0 1 1 0 0 0)"/>
    </g>
</svg>
