<svg xmlns="http://www.w3.org/2000/svg" width="96" height="50" viewBox="0 0 96 50">
    <path fill="#FA4841" d="M53.131.08l-2.967 7.784L56.59.08h18.716l-1.649 4.325h-6.211L65.424 9.87h5.898l-1.815 4.836H63.61l-2.351 6.29h7.155l-.722 2.015c14.568-3.947 27.198-7.368 27.332-7.402.787-.196.904.197.275.512 0 0-65.189 28.309-71.086 30.668-5.898 2.36-14.548 5.898-21.468-.079-7.142-6.167.943-19.56 9.514-29.626-7.391 14.783 2.831 20.268 11.797 17.752l32.57-8.827-8.824.02-.282-10.852-4.122 10.852h-6.133L46.919.079h6.212zm-37.09 30.528c.761 0 1.357.533 1.357 1.31 0 .773-.6 1.306-1.357 1.306s-1.356-.53-1.356-1.307c0-.776.595-1.309 1.356-1.309zm0 .375c-.545 0-.945.399-.945.934 0 .536.403.933.945.933.536 0 .945-.406.945-.933 0-.529-.405-.934-.945-.934zm-.022.23c.37 0 .593.086.593.426 0 .263-.15.361-.34.37l.362.613h-.409l-.324-.6h-.06v.6h-.355v-1.408zm-.006.242h-.171v.326h.203c.123 0 .193-.031.193-.178 0-.136-.12-.148-.225-.148zM29.225.079l-.753 11.638L32.842.08h6.135l-9.733 25.95H22.64l.75-11.48-4.289 11.48h-6.133L22.699.079h6.526zm16.681 0l-9.731 25.95H30.04L39.772.079h6.134zm16.862.513l-9.274 10.182.393 13.525L62.768.592zM77.698 0c.762 0 1.358.533 1.358 1.31 0 .773-.6 1.305-1.357 1.305-.758 0-1.357-.529-1.357-1.306 0-.776.596-1.309 1.357-1.309zm0 .375c-.545 0-.944.4-.944.935 0 .536.402.932.945.932.536 0 .945-.406.945-.932 0-.53-.406-.935-.945-.935zm-.02.23c.37 0 .592.086.592.426 0 .263-.15.361-.34.37l.362.612h-.41l-.322-.599h-.06v.599h-.356V.606zm-.007.241h-.172v.327h.203c.124 0 .194-.031.194-.177 0-.137-.121-.15-.225-.15z"/>
</svg>
