<svg xmlns="http://www.w3.org/2000/svg" width="151" height="20"><path fill="#FA4841" d="M150.108 7.784v11.838h-3.784V11.73h-13.838v7.892h-3.783V7.784h21.405zM103.514.054v15.73h17.027c-.433 1.621-1.46 3.027-3.352 3.838H99.676V.054h3.838zm-14.541 0c-.432 1.676-2.108 3.243-4.162 3.838H71.297l.054 3.892h17.514v11.838H66.432c.92-1.892 2.757-3.352 4.92-3.946h13.73v-4.054H67.567V.054zM56.541 15.676c-.379 1.73-1.892 3.567-3.946 3.946H38c-2.054-.379-3.568-2.217-4-3.946zM24.703 0v.054c-.433 1.73-1.892 3.351-3.946 3.892h-6.162l-.325.108v15.514h-3.838V4.054l-.324-.108H3.946C1.946 3.514.432 1.784 0 .054L24.703 0zM56.54 7.73c-.379 1.73-1.892 3.567-3.946 3.946H38c-2.054-.433-3.568-2.217-4-3.946zM150.595 0c-.433 1.73-1.892 3.568-3.946 3.946h-14.595c-2-.432-3.513-2.216-3.946-3.946zM56.54 0c-.379 1.73-1.892 3.568-3.946 3.946H38C35.946 3.514 34.432 1.73 34 0z"/></svg>