<svg xmlns="http://www.w3.org/2000/svg" width="153" height="50"><path fill="#FA4841" d="M20.132 3.956C23.707 1.764 27.581-.218 31.74.02c1.215.224 2.193.88 2.76 1.83 1.35 2.666-.367 5.528-1.529 7.022-1.078 1.326-3.577 1.83-3.478-.586.07-1.578 1.355-2.75 1.823-3.114.577-.377 1.324-.447 1.769-.447.42-.391.746-3.127-2.735-2.234-4.542 1.425-7.983 4.971-11.691 9.104C12.015 19.538 8.274 26.701 6.89 34.143c-.596 4.565.203 7.735 2.432 9.703 5.802 4.008 10.22 2.011 23.471-1.103 12.43-3.448 20.137-2.806 25.817.852 2.875 1.858 6.322 4.552 7.538 6.38-3.65-2.68-8.66-4.006-12.134-3.685-4.226.07-5.916 3.352-5.916 3.352-5.085-9.258-20.558-3.939-23.582-3.212-3.023.725-7.517 1.927-11.234 2.317-5.3.447-9.742-1.689-11.882-5.71-2.765-5.795-.92-12.915 1.12-17.885 3.54-8.238 9.793-15.764 17.612-21.196zM134.857 2.91c1.737-1.187 3.895-2.652 5.876-2.275.608.111 1.073.6 1.18 1.242.325 1.996-.554 3.672-1.348 5.166-.684.224-1.725.42-1.725.42l.735-1.509c.525-1.033.982-1.94.924-3.17-.153-.32-.33-.335-.469-.32-1.304.265-2.978 1.884-4.594 3.462l-1.045 1.006c-6.64 6.631-14.442 20.496-15.65 23.4 2.727-1.326 11.718-10.234 16.113-16.364.9-.027 1.66-.18 1.66-.18-.703 1.381-5.518 7.567-11.23 13.026a67.546 67.546 0 01-8.065 6.59c-1.248 2.695-2.486 5.669-3.02 8.797-.059.433-.201 2.29 1.178 2.179 1.766-.391 4.949-5.653 4.949-5.653 3.023-4.734 6.856-10.803 12.11-13.876 1.209-.684 2.96-1.04 4.154-.286.279.181.955 1.019 1.18 1.395 0 0 .497-.876.73-1.257h4.887l-7.135 12.653s-2.561 3.984-3.206 5.939c-.258.767.434 1.025.926.69 2.829-1.662 5.078-5.164 6.846-7.836h1.63c-1.243 2.099-6.032 9.357-10.033 11.536-1.115.6-2.079 1.3-3.367 1.063-1.879-.237-1.972-2.611-1.629-3.937-1.068 1.13-3.37 3.337-5.435 3.895-1.799.349-4.158-.364-3.507-4.915-3.03 3.798-6.753 6.674-9.002 3.895-1.574-1.968-.804-5.291.863-10.178 0 0 .56-1.676.623-1.884-.024-.015-.03-.015-.044-.015-1.086.28-2.522.321-2.626.335-2.63 4.608-5.965 9.648-10.738 12.161-.703.363-2.49 1.117-3.91.391-1.382-.782-1.923-2.346-1.657-4.775.377-3.1 1.74-5.807 3.107-8.335 2.541-3.979 6.063-8.81 10.775-10.765 1.052-.474 2.612-.768 3.874-.14 1.076.782 1.365 1.913 1.365 3.115 0 .558-.066 1.13-.137 1.689-.41 1.955-1.23 3.756-1.88 5.096.313.21 2.159-.223 2.636-.586 6.592-13.767 14.132-23.848 23.06-30.843zM101.35.438c1.947-.475 4.59-.642 6.202 1.117 0 0 .78-.265 1.634-.572 2.172-.782 6.439-1.787 11.681 1.075 2.309 1.27 4.654 2.555 6.873 3.91l1.386.85c-.958.909-2.658 2.724-3.693 3.924-2.12-.921-8.409-5.738-11.362-6.716 0 0-3.779-1.73-5.622-.754.029.335.046.782.046 1.117 0 2.765-1.05 5.25-2.23 7.75-2.036 3.294-4.528 6.896-8.386 7.79-.837.056-1.878-.028-2.463-1.089-1.122-2.039-.008-4.342.792-6.045 3.147-6.717 9.749-10.347 9.749-10.347-1.148-.447-2.477-.279-3.911.447-7.033 3.477-12.254 9.997-16.99 16.35-4.593 6.842-7.802 12.846-8.546 19.896-.167 2.485.626 4.413 2.182 5.334 2.47 1.508 5.293-.447 7.2-2.067 2.159-1.926 4.292-4.72 5.686-7.512 1.884-3.797 2.382-7.72.964-8.195-1.622-.46-3.066 1.27-3.788 2.346-1.908 2.597-2.282 5.515-2.282 5.515-2.75 1.229-5.173 3.476-6.36 4.844.368-3.043.93-4.956 1.959-7.274 1.962-4.51 5.698-7.65 9.518-8 1.177-.07 2.28.572 2.746 1.578 1.023 2.15.363 4.97-.231 6.967-2.463 6.716-7.406 12.552-12.906 15.261-2.538 1.019-6.132 1.633-8.843-1.2-3.189-3.338-2.792-8.965-1.485-12.79 1.694-5.683 4.874-11.435 10-18.096C87.843 7.35 94.346 2.448 101.351.438zm35.104 26.305c-.711-.293-1.385.083-2.005.53-3.683 2.946-6.19 7.19-8.348 10.793l-.193.405c-.75 1.55-1.523 3.141-1.485 4.859.039.238.201.545.431.628.834.321 1.525-.32 2.196-.921 0 0 .47-.419.472-.419 2.414-3.002 4.345-6.422 6.207-9.731.953-1.676 1.932-3.42 2.96-5.083.044-.07.118-.293.118-.377 0-.265-.19-.53-.353-.684zm-33.757 5.208c-2.084 2.671-5.03 7.574-4.98 10.312.008.446.092.858.345 1.235 2.117 2.457 7.19-4.6 8.67-7.896-1.191-.517-3.164-1.743-4.035-3.65zM21 20.488c4.659-6.227 10.476-9.857 13.37-7.959 2.95 2.15.146 7.889-.194 8.796 1.039.266 4.36-2.107 6.295-4.244 1.538-1.703 4.173-3.895 5.837-4.523 1.244-.601 3.165-.796 4.424-.043.845.49 1.411 1.494 1.47 2.556.167 2.96-3.276 7.819-5.003 5.362-.356-1.062.033-2.193 1.15-3.366.568-.586 1.266-.851 2.138-.823.343-.545.256-1.34-.287-1.662-.57-.349-1.718-.11-2.774.712-3.741 2.974-7.03 7.904-8.937 13.335-.338 1.02-.522 2.57.077 3.632 1.638 2.526 5.474-.99 5.474-.99 2.589-2.303 5.085-5.495 7.046-8.33 5.094-7.371 11.86-13.728 14.847-9.595.054.07.131.216.164.244.043-.056.57-.908.57-.908h4.821S61.276 30.396 61.263 30.424c-.213.432-.348 1.042-.004 1.335.277.196.76-.052.764-.052 2.648-1.285 6.727-7.197 6.747-7.197h1.66c-2.603 3.816-5.827 8.23-9.829 11.05-1.11.74-2.572 1.529-4.016 1.012-1.53-.964-1.243-2.165-1.145-3.616-.012 0-3.801 4.608-6.973 3.686-1.05-.335-2.727-1.244-1.483-5.572l.118-.479.05-.204c-.288.28-.798.767-.798.767-2.995 2.933-6.39 6.228-10.641 5.516-3.19-.992-3.105-4.259-3.217-5.153-.358-2.932 3.156-8.838 3.169-8.88-.922.266-1.74.461-2.42.587l-1.15 1.899c-1.196 1.983-2.431 4.05-4.03 5.767l-.304.321c-2.351 2.75-7.88 7.888-10.858 4.356-2.002-3.002-.163-9.494 4.098-15.08zm87.785 5.906c-.627-.223-1.482-.07-2.049.377-1.321.781-2.687 2.331-2.279 4.315.481 2.303 2.969 3.142 3.11 3.043a18.615 18.615 0 001.83-4.426l.012-.098c.054-.432.115-.907.115-1.368 0-.753-.158-1.452-.74-1.843zm-43.62-11.226c-.078-.614-.973-1.48-3.211.49-.666.585-3.396 4.062-4.334 5.36-3.772 5.083-4.994 8.754-5.095 9.955-.036.363.09.712.406.921.263.197.658.169.898.098 1.682-.935 2.713-2.276 3.737-3.839 0 0 .73-1.116.725-1.103a440.333 440.333 0 006.874-11.882zm-38.082 4.51a.205.205 0 00-.082.028c-1.621 2.332-3.287 4.845-4.337 7.693l-.13.42c-.365 1.172-.816 2.624.058 3.671.413.517 1.222.39 1.808.195 1.975-1.019 3.555-3.141 4.821-4.831 0 0 2.097-3.42 2.103-3.42.02-.042.062-.168.062-.168.056-.125.08-.181.08-.223 0-.028-.01-.042-.019-.042-1.426-.42-3.334-1.327-4.351-3.28a.052.052 0 00-.004-.021zm6.33-5.082c-.655-.517-1.784-.252-2.51.251-.757.573-2.474 2.15-2.056 4.16.303 1.034 1.286 1.9 2.59 2.304l.415.07c.242.057.453.112.587 0 0 0 .925-2.122.934-2.15.318-.95.598-1.968.598-2.875 0-.671-.153-1.285-.558-1.76zm73.502-10.807c-3.998 2.053-7.726 6.06-9.909 10.78-1.482 3.503.178 3.936 1.152 3.74 1.606-.39 8.096-5.29 8.824-13.64a2.14 2.14 0 00-.067-.88zm-27.411 8.893L76.92 16.88h-4.58l2.583-4.198h4.58zM152.625.02s-1.972 4.203-5.818 7.54c-3.635 3.309-10.154 6.785-16.303 5.221a67.769 67.769 0 013.486-4.23c4.381.446 8-.838 11.491-2.82 4.261-2.416 7.144-5.71 7.144-5.71z"/></svg>