<svg xmlns="http://www.w3.org/2000/svg" width="82" height="22"><g fill="none" fill-rule="evenodd"><path fill="#20D400" fill-rule="nonzero" d="M13.892 1c.522 0 .945.425.945.95a1.28 1.28 0 001.218 1.33c.521 0 .944.424.944.949v3.893c.056 4.855-2.723 9.292-7.101 11.339l-1.01.456a.951.951 0 01-.775 0l-1.01-.456C2.722 17.414-.056 12.977 0 8.122V4.23c0-.525.423-.95.944-.95.7-.03 1.245-.625 1.218-1.33 0-.524.423-.949.945-.949h10.784zm-2.285 5.498l-4.051 4.084-1.219-1.235a.944.944 0 00-1.34 0 .958.958 0 000 1.349l1.888 1.899a.94.94 0 001.341 0l4.722-4.748a.958.958 0 000-1.349.945.945 0 00-1.341 0z"/><text fill="#000" font-family="MuseoSansCyrl-900, Museo Sans Cyrl" font-size="18" font-weight="bold" letter-spacing="-.434"><tspan x="25" y="17">BeSafe</tspan></text></g></svg>