<svg xmlns="http://www.w3.org/2000/svg" width="109" height="50" viewBox="0 0 109 50">
    <path fill="#FA4841" d="M105.552 44.367l.17.005c1.46.086 2.654 1.267 2.654 2.797 0 1.62-1.287 2.831-2.824 2.831-1.544 0-2.838-1.211-2.838-2.83 0-1.59 1.295-2.803 2.838-2.803zM41.25 35.141c3.868 0 6.226 3.3 6.226 7.37s-2.156 7.368-6.226 7.368h-6.018V39.384h2.757v8.068l2.89.003c2.732 0 3.802-2.214 3.802-4.945 0-2.73-1.07-4.944-3.801-4.944h-7.463v12.307H30.66l-6.052-10.489v10.489h-2.756V35.148h2.824l5.984 10.488V35.148zm34.12.007v2.42h-8.337v3.43h7.262v2.42h-7.262v4.034h8.338v2.42H64.276V35.149H75.37zm25.953 0v2.42h-7.866v3.43h6.791v2.42h-6.791v4.034h7.866v2.42H90.7V35.149h10.622zm-48.677 0L55.4 46.51l2.757-11.363h4.438v14.725h-2.757v-12.17l-2.958 12.17h-2.958L50.965 37.77v12.103h-2.758V35.148h4.438zm-50.09 0L4.84 45.906l2.286-10.758h2.824l2.286 10.758 2.286-10.758h5.244v14.725h-2.756v-13.38l-3.631 13.38h-2.22L8.54 37.636 5.917 49.873H3.698L0 35.148h2.555zm82.699-.006c2.324 0 3.94 1.885 3.94 4.208 0 1.432-.92 2.698-2.013 3.457.58.332 1.2.947 1.334 2.09l.639 4.975h-2.892l-.336-3.63c-.134-.942-.437-2.018-1.614-2.018H80.01v5.648h-2.756v-14.73zm20.298 9.64l-.163.004c-1.236.082-2.163 1.091-2.162 2.383 0 1.378 1.008 2.417 2.325 2.417 1.303 0 2.313-1.039 2.313-2.417 0-1.348-1.01-2.388-2.313-2.388zm.173.752c.783 0 1.153.31 1.153.942 0 .594-.378.843-.867.896l.941 1.453h-.549l-.895-1.415-.543-.001v1.416h-.51v-3.29zm-.081.415h-.678l-.001 1.047h.535c.42 0 .807-.02.86-.439l.006-.103c0-.436-.376-.505-.722-.505zm-21.4-8.378H80.01v4.234l4.234-.002c.769.019 1.487-.38 1.877-1.043.39-.662.39-1.484 0-2.147-.39-.662-1.108-1.061-1.877-1.042zM82.164 9.47C82.195 5.306 83.919-.614 97.759.052h3.497l.019 10.354c0 11.448-9.28 20.728-20.728 20.728-11.448 0-20.729-9.28-20.729-20.728L59.84.052h3.496C77.319-.62 78.933 5.43 78.93 9.599v9.816c0 .893.724 1.617 1.617 1.617.892 0 1.616-.724 1.616-1.617z"/>
</svg>
