<svg xmlns="http://www.w3.org/2000/svg" width="107" height="22"><path fill="#FA4841" fill-rule="evenodd" d="M54.978 10.75c-.882 0-1.518.289-2.162.583v6.656c.618.06.97.06 1.557.06 2.117 0 2.407-.969 2.407-2.32v-3.18c0-.997-.332-1.799-1.802-1.799m-14.056-.363c-1.469 0-1.803.805-1.803 1.802v.56h3.605v-.56c0-.998-.335-1.802-1.802-1.802m-27.229 6.929c0 .787.372 1.197 1.195 1.197.882 0 1.404-.286 2.049-.583v-1.577h-1.93c-.913 0-1.314.169-1.314.963m54.958-6.566c-1.47 0-1.98.802-1.98 1.799v3.643c0 1 .51 1.803 1.98 1.803 1.467 0 1.98-.803 1.98-1.803v-3.643c0-.997-.513-1.799-1.98-1.799M6.484 21.399H2.162V10.948H0V7.346h2.162V5.183c0-2.938 1.22-4.685 4.684-4.685h2.886V4.1H7.93c-1.35 0-1.44.503-1.44 1.443l-.006 1.802h3.269l-.383 3.602H6.484V21.4zm14.778.027H17.66l-.155-.91a8.274 8.274 0 01-4.084 1.057c-2.643 0-4.05-1.763-4.05-4.2 0-2.877 1.642-3.904 4.578-3.904h2.989v-.622c0-1.47-.169-1.9-2.43-1.9H10.81l.362-3.602h4.04c4.962 0 6.05 1.567 6.05 5.531v8.55zm12.254-10.214c-2.242-.384-2.886-.469-3.965-.469-1.938 0-2.524.428-2.524 2.07v3.11c0 1.644.586 2.073 2.524 2.073 1.079 0 1.723-.085 3.965-.47v3.511c-1.965.441-3.244.556-4.325.556-4.643 0-6.487-2.437-6.487-5.96V13.11c0-3.525 1.844-5.968 6.487-5.968 1.081 0 2.361.117 4.325.558v3.512zm13.531 4.421h-7.928v.29c0 1.644.586 2.073 2.523 2.073 1.743 0 2.805-.085 5.044-.47v3.511c-2.159.441-3.283.556-5.402.556-4.643 0-6.489-2.437-6.489-5.96v-2.885c0-3.081 1.37-5.606 6.127-5.606 4.758 0 6.125 2.495 6.125 5.606v2.885zm14.056.066c0 3.404-.974 5.888-6.876 5.888-2.13 0-3.38-.188-5.734-.55V1.579l4.323-.72v6.806c.933-.347 2.143-.522 3.244-.522 4.323 0 5.043 1.936 5.043 5.045v3.511zm13.856.074c0 2.937-1.214 5.786-6.293 5.786-5.083 0-6.319-2.849-6.319-5.786v-2.835c0-2.937 1.236-5.786 6.319-5.786 5.079 0 6.293 2.849 6.293 5.786v2.835zm13.845 0c0 2.937-1.215 5.786-6.293 5.786-5.082 0-6.32-2.849-6.32-5.786v-2.835c0-2.937 1.238-5.786 6.32-5.786 5.078 0 6.293 2.849 6.293 5.786v2.835zm14.211 5.626H98.33l-3.962-6.605v6.605h-4.323V1.579l4.323-.72v12.76l3.962-6.273h4.686L98.69 14.19l4.326 7.208zM82.497 10.75c-1.469 0-1.978.802-1.978 1.799v3.643c0 1 .51 1.803 1.978 1.803 1.466 0 1.985-.803 1.985-1.803v-3.643c0-.997-.519-1.799-1.985-1.799m22.986 8.184c.728 0 1.308.593 1.308 1.333 0 .752-.58 1.338-1.314 1.338-.728 0-1.32-.587-1.32-1.338 0-.74.592-1.333 1.32-1.333h.006zm-.007.208c-.586 0-1.066.503-1.066 1.126 0 .633.48 1.132 1.073 1.132.592.006 1.066-.499 1.066-1.127 0-.627-.474-1.131-1.066-1.131h-.007zm-.249 1.902h-.236v-1.488c.124-.018.242-.035.42-.035.226 0 .373.047.462.112.09.066.136.167.136.309 0 .195-.13.314-.289.361v.012c.13.024.22.141.248.36.035.232.071.321.095.369h-.249c-.035-.047-.072-.184-.1-.379-.036-.19-.13-.262-.321-.262h-.165v.64zm0-.824h.173c.194 0 .36-.071.36-.255 0-.131-.095-.261-.36-.261-.078 0-.132.006-.173.012v.504z"/></svg>