<svg xmlns="http://www.w3.org/2000/svg" width="82" height="22" viewBox="0 0 82 22">
    <g fill="none" fill-rule="evenodd">
        <path fill="#20D400" fill-rule="nonzero" d="M13.892 1c.522 0 .945.425.945.95-.027.704.517 1.298 1.218 1.33.521 0 .944.424.944.949v3.893c.056 4.855-2.723 9.292-7.101 11.339l-1.01.456c-.247.11-.529.11-.775 0l-1.01-.456C2.722 17.414-.056 12.977 0 8.122V4.23c0-.525.423-.95.944-.95.7-.03 1.245-.625 1.218-1.33 0-.524.423-.949.945-.949h10.784zm-2.285 5.498l-4.051 4.084-1.219-1.235c-.37-.372-.97-.372-1.34 0-.37.373-.37.976 0 1.349l1.888 1.899c.177.18.419.28.67.28.252 0 .494-.1.671-.28l4.722-4.748c.37-.373.37-.976 0-1.349-.37-.372-.97-.372-1.341 0z"/>
        <text fill="#000" font-family="MuseoSansCyrl-900, Museo Sans Cyrl" font-size="18" font-weight="bold" letter-spacing="-.434">
            <tspan x="25" y="17">BeSafe</tspan>
        </text>
    </g>
</svg>
